<?xml version="1.0" encoding="UTF-8" standalone="no"?>
<!-- Created with Inkscape (http://www.inkscape.org/) -->

<svg
   width="800"
   height="755"
   viewBox="0 0 211.66666 199.76039"
   version="1.1"
   id="svg1"
   inkscape:version="1.4.3 (0d15f75042, 2025-12-25)"
   sodipodi:docname="topology.svg"
   xml:space="preserve"
   xmlns:inkscape="http://www.inkscape.org/namespaces/inkscape"
   xmlns:sodipodi="http://sodipodi.sourceforge.net/DTD/sodipodi-0.dtd"
   xmlns="http://www.w3.org/2000/svg"
   xmlns:svg="http://www.w3.org/2000/svg"><sodipodi:namedview
     id="namedview1"
     pagecolor="#ffffff"
     bordercolor="#eeeeee"
     borderopacity="1"
     inkscape:showpageshadow="0"
     inkscape:pageopacity="0"
     inkscape:pagecheckerboard="0"
     inkscape:deskcolor="#d1d1d1"
     inkscape:document-units="px"
     inkscape:zoom="0.92432834"
     inkscape:cx="311.03666"
     inkscape:cy="302.92266"
     inkscape:window-width="2556"
     inkscape:window-height="1381"
     inkscape:window-x="0"
     inkscape:window-y="0"
     inkscape:window-maximized="0"
     inkscape:current-layer="layer1" /><defs
     id="defs1" /><g
     inkscape:label="Layer 1"
     inkscape:groupmode="layer"
     id="layer1"><rect
       style="fill:#ffffff;fill-opacity:1;stroke:none;stroke-width:1.10247"
       id="rect14"
       width="211.66666"
       height="199.76041"
       x="-7.1054274e-15"
       y="0" /><g
       id="g111"
       transform="translate(24.428123,-10.583334)"><g
         id="g100"><rect
           style="fill:#efeeef;fill-opacity:1;stroke:#000000;stroke-width:0.529164;stroke-dasharray:none;stroke-opacity:1"
           id="rect22"
           width="31.574837"
           height="18.4352"
           x="114.47399"
           y="32.731247"
           ry="1.8506361" /><text
           xml:space="preserve"
           style="font-style:normal;font-variant:normal;font-weight:normal;font-stretch:normal;font-size:22.5778px;font-family:sans-serif;-inkscape-font-specification:'sans-serif, Normal';font-variant-ligatures:normal;font-variant-caps:normal;font-variant-numeric:normal;font-variant-east-asian:normal;writing-mode:lr-tb;direction:ltr;fill:#000000;fill-opacity:1;stroke:none;stroke-width:0;stroke-dasharray:none"
           x="123.88019"
           y="43.935692"
           id="text9"><tspan
             sodipodi:role="line"
             id="tspan9"
             style="font-style:normal;font-variant:normal;font-weight:normal;font-stretch:normal;font-size:5.64444px;font-family:sans-serif;-inkscape-font-specification:'sans-serif, Normal';font-variant-ligatures:normal;font-variant-caps:normal;font-variant-numeric:normal;font-variant-east-asian:normal;fill:#000000;fill-opacity:1;stroke:none;stroke-width:0;stroke-dasharray:none"
             x="123.88019"
             y="43.935692">Host</tspan></text></g><g
         id="g101"><rect
           style="fill:#efeeef;fill-opacity:1;stroke:#000000;stroke-width:0.529164;stroke-dasharray:none;stroke-opacity:1"
           id="rect23"
           width="31.574837"
           height="18.4352"
           x="65.617851"
           y="68.447243"
           ry="1.8506361" /><text
           xml:space="preserve"
           style="font-style:normal;font-variant:normal;font-weight:normal;font-stretch:normal;font-size:22.5778px;font-family:sans-serif;-inkscape-font-specification:'sans-serif, Normal';font-variant-ligatures:normal;font-variant-caps:normal;font-variant-numeric:normal;font-variant-east-asian:normal;writing-mode:lr-tb;direction:ltr;fill:#000000;fill-opacity:1;stroke:none;stroke-width:0;stroke-dasharray:none"
           x="68.194626"
           y="79.679916"
           id="text13"><tspan
             sodipodi:role="line"
             id="tspan13"
             style="font-style:normal;font-variant:normal;font-weight:normal;font-stretch:normal;font-size:5.64444px;font-family:sans-serif;-inkscape-font-specification:'sans-serif, Normal';font-variant-ligatures:normal;font-variant-caps:normal;font-variant-numeric:normal;font-variant-east-asian:normal;fill:#000000;fill-opacity:1;stroke:none;stroke-width:0;stroke-dasharray:none"
             x="68.194626"
             y="79.679916">MACVLAN</tspan></text></g><path
         style="fill:none;fill-rule:evenodd;stroke:#000000;stroke-width:0.264583px;stroke-linecap:butt;stroke-linejoin:miter;stroke-opacity:1"
         d="M 48.336419,41.948854 H 65.617584"
         id="path15"
         inkscape:connector-type="polyline"
         inkscape:connector-curvature="0" /><path
         style="fill:none;fill-rule:evenodd;stroke:#000000;stroke-width:0.264583px;stroke-linecap:butt;stroke-linejoin:miter;stroke-opacity:1"
         d="M 97.192755,41.948854 H 114.47364"
         id="path16"
         inkscape:connector-type="polyline"
         inkscape:connector-curvature="0" /><path
         style="fill:none;fill-rule:evenodd;stroke:#000000;stroke-width:0.264583px;stroke-linecap:butt;stroke-linejoin:miter;stroke-opacity:1"
         d="M 81.405433,68.447255 81.405168,51.16645"
         id="path17"
         inkscape:connector-type="polyline"
         inkscape:connector-curvature="0" /><g
         id="g110"><g
           id="g98"><rect
             style="fill:#efeeef;fill-opacity:1;stroke:#000000;stroke-width:0.529164;stroke-dasharray:none;stroke-opacity:1"
             id="rect7"
             width="31.574837"
             height="18.4352"
             x="16.761581"
             y="32.731251"
             ry="1.8506361" /><text
             xml:space="preserve"
             style="font-style:normal;font-variant:normal;font-weight:normal;font-stretch:normal;font-size:22.5777px;font-family:sans-serif;-inkscape-font-specification:'sans-serif, Normal';font-variant-ligatures:normal;font-variant-caps:normal;font-variant-numeric:normal;font-variant-east-asian:normal;writing-mode:lr-tb;direction:ltr;fill:#000000;fill-opacity:1;stroke:none;stroke-width:0;stroke-dasharray:none"
             x="24.048693"
             y="43.972191"
             id="text7"><tspan
               sodipodi:role="line"
               id="tspan7"
               style="font-style:normal;font-variant:normal;font-weight:normal;font-stretch:normal;font-size:5.64441px;font-family:sans-serif;-inkscape-font-specification:'sans-serif, Normal';font-variant-ligatures:normal;font-variant-caps:normal;font-variant-numeric:normal;font-variant-east-asian:normal;fill:#000000;fill-opacity:1;stroke:none;stroke-width:0;stroke-dasharray:none"
               x="24.048693"
               y="43.972191">VXLAN</tspan></text></g><g
           id="g38"
           transform="translate(9.6941024,-21.512276)"><rect
             style="fill:#fff2cc;fill-opacity:1;stroke:#ffdd76;stroke-width:0.264583;stroke-dasharray:none;stroke-opacity:1"
             id="rect36"
             width="17.992134"
             height="9.2567034"
             x="26.132042"
             y="68.314957"
             ry="0.92924339" /><g
             id="g37"
             transform="matrix(0.6249275,0,0,0.6249275,17.526143,21.155862)"><path
               fill-rule="evenodd"
               clip-rule="evenodd"
               d="m 22.217818,78.397743 c 0.09805,0.04954 0.136866,0.168052 0.08668,0.26475 -0.09906,0.190937 -0.152669,0.464799 -0.173167,0.746294 -0.02021,0.277835 -0.0069,0.54077 0.01394,0.695522 0.0144,0.107708 -0.0624,0.206535 -0.171589,0.22073 -0.109202,0.01416 -0.209414,-0.06164 -0.223824,-0.169322 -0.02435,-0.181995 -0.03851,-0.471652 -0.01639,-0.775222 0.02182,-0.299911 0.08047,-0.636259 0.215922,-0.897317 0.05015,-0.0967 0.170334,-0.134952 0.268387,-0.08543 z"
               fill="#1a1a1a"
               id="path1"
               style="stroke-width:0.202586" /><path
               d="m 21.061348,81.511838 c 0.11973,-0.561183 -1.097244,-0.652774 -1.720715,-0.628403 -2.457883,0.05214 -1.4305,1.538767 -0.06968,1.704499 0.560019,0.06822 1.64074,-0.374617 1.790408,-1.076096 z"
               fill="#cfedfc"
               id="path2"
               style="stroke-width:0.202586" /><path
               d="m 18.037466,81.195052 c 0.06899,-0.05612 0.158558,-0.106942 0.270906,-0.150517 l 0.03499,0.108565 0.178304,0.222798 0.261189,0.233586 0.200662,-0.0294 1.003012,-0.102586 1.054358,0.111261 c -0.03315,0.104332 -0.08684,0.2024 -0.155869,0.293287 -0.312061,-0.06164 -1.0406,-0.07997 -1.436304,-0.08069 -0.105886,0.122731 -0.144216,0.540058 -0.1525,0.789279 -0.0086,-7.65e-4 -0.017,-0.0015 -0.02534,-0.0031 -0.111062,-0.01355 -0.219912,-0.03583 -0.324818,-0.06547 -0.0097,-0.194866 0.05842,-0.473505 0.108015,-0.62818 -0.310185,0.01662 -0.63828,0.167799 -0.819233,0.273103 -0.08341,-0.06608 -0.155717,-0.136598 -0.214353,-0.20933 l 0.402052,-0.21792 c -0.06202,-0.03109 -0.258165,-0.336357 -0.385122,-0.545081 z"
               fill="#00ace6"
               id="path3"
               style="stroke-width:0.202586" /><path
               d="m 20.85283,82.188822 0.361371,0.24106 -1.632884,2.383145 -0.39235,-0.261726 -0.301357,-0.438436 -0.150893,-0.723884 0.270224,-0.635898 0.648563,0.195172 z"
               fill="#ffe100"
               id="path4"
               style="stroke-width:0.202586" /><path
               fill-rule="evenodd"
               clip-rule="evenodd"
               d="m 20.52407,80.605386 c 0.484408,-1.030385 1.662753,-0.777756 2.219258,-0.406554 l -1.52931,2.231961 -0.175518,-0.11708 c -0.222843,0.254979 -0.678033,0.447985 -0.877769,0.512608 0.02029,0.286556 0.264053,0.507517 0.3834,0.58217 l -0.50244,0.733286 C 19.455232,83.750583 19.283926,83.191138 19.271576,82.960331 L 19.0539,82.948692 c -0.384341,0.859531 0.218335,1.525658 0.590034,1.773601 l -0.64896,0.947156 0.112853,-0.889278 C 18.376265,84.161616 18.50715,83.227002 18.664031,82.837025 18.160037,82.73826 17.28533,82.01685 17.449653,81.403762 17.735765,80.336257 19.6132,80.353951 20.52407,80.605394 Z m 0.537623,0.903634 c 0.11388,-0.558021 -1.099289,-0.649168 -1.721451,-0.624857 -0.395505,0.0084 -0.700767,0.0539 -0.928917,0.12512 0.10153,0.311111 0.336961,0.465825 0.451301,0.505977 0.721363,-0.161826 1.658021,-0.08717 2.199067,-0.0061 z m -0.04548,0.14734 c -0.377312,-0.04831 -0.939529,-0.0608 -1.231215,-0.06011 -0.39611,0.266786 -0.446913,0.716685 -0.413215,0.999138 0.536528,0.0091 1.406051,-0.359794 1.64443,-0.939055 z m -1.82533,0.921038 c -0.07236,-0.409142 0.160602,-0.795191 0.303585,-0.952316 -0.733553,0.02764 -1.195994,0.232974 -1.421909,0.394173 0.241734,0.260913 0.656809,0.483941 1.118324,0.558143 z m -1.24679,-0.726961 c 0.181337,-0.109316 0.506223,-0.209896 0.683003,-0.254872 -0.255576,-0.188549 -0.367174,-0.385383 -0.40663,-0.512769 -0.39977,0.189582 -0.445083,0.486376 -0.276373,0.767641 z"
               fill="#1a1a1a"
               id="path5"
               style="stroke-width:0.202586" /><path
               fill-rule="evenodd"
               clip-rule="evenodd"
               d="m 24.632746,80.007879 c -0.0831,-0.07129 -0.209023,-0.06263 -0.281288,0.01929 -0.142662,0.161842 -0.380276,0.312957 -0.637376,0.43663 -0.253785,0.122034 -0.506085,0.207706 -0.659359,0.246404 -0.106667,0.02695 -0.170984,0.134093 -0.143657,0.239336 0.02733,0.105243 0.135954,0.168733 0.242637,0.141789 0.180241,-0.04548 0.457931,-0.140533 0.735207,-0.273899 0.273922,-0.131736 0.568419,-0.310767 0.763491,-0.532042 0.07228,-0.08197 0.06348,-0.206221 -0.01968,-0.277529 z"
               fill="#1a1a1a"
               id="path6"
               style="stroke-width:0.202586" /><path
               d="m 22.134979,82.228286 c 0.483168,-0.318753 1.02282,0.761401 1.232234,1.34132 0.866889,2.269885 -0.914155,1.883186 -1.577135,0.698991 -0.272843,-0.487326 -0.259068,-1.641866 0.344901,-2.040311 z"
               fill="#cfedfc"
               id="path7"
               style="stroke-width:0.202586" /><path
               d="m 23.559544,84.879105 c 0.02711,-0.08409 0.0415,-0.185019 0.04066,-0.304121 l -0.115166,0.0084 -0.276005,-0.08025 -0.317008,-0.152095 -0.04717,-0.194666 -0.277283,-0.956597 -0.497571,-0.923894 c -0.08576,0.06922 -0.157975,0.154936 -0.217736,0.251994 0.174299,0.262759 0.462969,0.92299 0.611143,1.285012 -0.07596,0.142677 -0.454202,0.333293 -0.685514,0.433758 0.0038,0.0077 0.008,0.01493 0.01202,0.0222 0.05413,0.09663 0.115679,0.187975 0.18263,0.272981 0.186888,-0.0637 0.423568,-0.229934 0.550548,-0.332972 0.09994,0.290209 0.08004,0.646924 0.04847,0.851859 0.09321,0.05176 0.186504,0.09167 0.276755,0.118252 l 0.05513,-0.449317 c 0.05237,0.04518 0.412549,0.111016 0.656159,0.149483 z"
               fill="#00ace6"
               id="path8"
               style="stroke-width:0.202586" /><path
               d="m 21.57535,82.670451 -0.361371,-0.241059 -1.632884,2.383145 0.39235,0.261725 0.524653,0.112517 0.737052,-0.131583 0.497395,-0.484385 -0.425275,-0.521092 z"
               fill="#ffe100"
               id="path9"
               style="stroke-width:0.202586" /><path
               fill-rule="evenodd"
               clip-rule="evenodd"
               d="m 23.187676,82.382027 c 0.78859,-0.827503 0.111874,-1.812261 -0.444631,-2.183455 l -1.529288,2.231953 0.175525,0.117096 c -0.156766,0.299036 -0.168657,0.787739 -0.155004,0.994681 -0.277093,0.08822 -0.575732,-0.0526 -0.690431,-0.134071 l -0.502417,0.733278 c 0.586451,0.391194 1.176462,0.339556 1.39815,0.264841 l 0.09206,0.194973 c -0.665177,0.6722 -1.516263,0.368622 -1.887963,0.120702 l -0.648976,0.947148 0.79431,-0.434708 c 0.85437,0.43931 1.684606,-0.02879 1.992946,-0.317796 0.280683,0.424662 1.285142,0.956711 1.800546,0.577798 0.897378,-0.659765 0.181091,-2.372172 -0.394824,-3.11244 z m -1.050224,-0.155525 c 0.482395,-0.312207 1.020225,0.764601 1.229194,1.343311 0.1395,0.365245 0.210425,0.661709 0.228472,0.897133 -0.330437,0.02297 -0.563672,-0.13492 -0.644038,-0.224651 -0.116628,-0.720781 -0.535885,-1.55055 -0.813628,-2.015793 z m -0.121613,0.09657 c 0.186076,0.327436 0.40732,0.837549 0.515319,1.104924 -0.103321,0.462081 -0.507524,0.676258 -0.785712,0.750644 -0.208479,-0.487846 -0.18557,-1.421465 0.270393,-1.855568 z m -0.186053,2.0145 c 0.411791,-0.0862 0.688041,-0.443383 0.782549,-0.632843 0.247377,0.681931 0.226573,1.181867 0.159147,1.448776 -0.335483,-0.124102 -0.699909,-0.421033 -0.941696,-0.815933 z m 1.148338,0.870656 c 0.03522,-0.20678 0.0088,-0.541719 -0.01478,-0.720337 0.272559,0.163726 0.499277,0.192553 0.633769,0.181229 -0.02933,0.436661 -0.291579,0.588763 -0.618984,0.539109 z"
               fill="#1a1a1a"
               id="path10"
               style="stroke-width:0.202586" /><path
               fill-rule="evenodd"
               clip-rule="evenodd"
               d="m 28.438557,82.913655 v -2.130279 h 1.042759 c 0.814133,0 1.084687,0.0079 1.233888,0.03606 0.105166,0.01983 0.251334,0.06324 0.324832,0.09648 0.07358,0.03323 0.18992,0.112271 0.258601,0.175677 0.06868,0.0634 0.152624,0.171858 0.186497,0.241045 0.03384,0.06922 0.07305,0.1974 0.08695,0.284933 0.01715,0.107899 0.01715,0.210669 2.3e-5,0.319136 -0.01394,0.08798 -0.05352,0.217576 -0.08802,0.28798 -0.03453,0.07037 -0.112739,0.171405 -0.173825,0.224482 -0.0611,0.05306 -0.169644,0.124102 -0.241197,0.157815 l -0.130081,0.06133 0.07465,0.01876 c 0.04104,0.01034 0.121881,0.03859 0.179636,0.06279 0.05773,0.0242 0.157263,0.09151 0.221182,0.149545 0.06394,0.05804 0.14169,0.145235 0.172807,0.193817 0.03116,0.04854 0.07435,0.147218 0.09605,0.219261 0.02213,0.0735 0.03943,0.220233 0.03943,0.334648 0,0.140495 -0.01616,0.252246 -0.05207,0.360246 -0.02864,0.08612 -0.09303,0.209697 -0.143067,0.274619 -0.05008,0.06493 -0.152524,0.159767 -0.227806,0.210693 -0.07527,0.05092 -0.207576,0.115556 -0.293998,0.143595 -0.08644,0.02802 -0.259957,0.06164 -0.385643,0.07473 -0.125664,0.01309 -0.667904,0.02389 -1.205007,0.02419 l -0.976527,4.29e-4 -0.0023,-1.116937 -0.06585,0.08592 c -0.03629,0.04724 -0.14489,0.163886 -0.24142,0.259168 -0.09653,0.0953 -0.24697,0.22096 -0.334288,0.279282 -0.08732,0.05827 -0.249666,0.148014 -0.360743,0.199345 -0.111124,0.05138 -0.285998,0.117019 -0.388622,0.145946 -0.108711,0.03063 -0.29661,0.05835 -0.450228,0.06639 -0.199123,0.01041 -0.310308,0.0038 -0.454164,-0.02802 -0.104776,-0.02297 -0.268042,-0.08008 -0.362788,-0.126858 -0.09481,-0.04678 -0.228678,-0.135043 -0.297543,-0.196145 -0.06891,-0.0611 -0.177424,-0.188549 -0.241236,-0.283279 -0.06378,-0.09471 -0.142884,-0.248387 -0.175701,-0.341517 -0.03285,-0.09311 -0.07128,-0.260285 -0.0854,-0.3715 -0.01417,-0.111246 -0.01861,-0.27449 -0.0099,-0.362796 0.0087,-0.08833 0.03744,-0.241342 0.06401,-0.340023 0.02642,-0.09867 0.07753,-0.236757 0.113474,-0.306855 0.03591,-0.07006 0.110749,-0.193709 0.166345,-0.274703 0.05559,-0.08102 0.180907,-0.224628 0.278555,-0.319136 0.09762,-0.09451 0.24063,-0.208909 0.317757,-0.254191 0.07714,-0.04533 0.210547,-0.111583 0.296441,-0.147294 0.13839,-0.0575 0.326449,-0.07721 0.438399,-0.07721 0.111973,0 0.299542,0.01723 0.423322,0.08151 0.07328,0.03813 0.182408,0.119179 0.242522,0.18018 0.07694,0.07812 0.1211,0.151046 0.149185,0.246366 0.02764,0.09396 0.03476,0.175839 0.0232,0.26733 -0.0092,0.07251 -0.05168,0.200884 -0.09437,0.285224 -0.04908,0.09681 -0.146995,0.222561 -0.265752,0.341134 -0.103421,0.10326 -0.286013,0.250577 -0.405735,0.327359 -0.119691,0.07678 -0.287613,0.170801 -0.373185,0.208947 -0.08556,0.03813 -0.245095,0.09714 -0.354572,0.131115 -0.109477,0.03392 -0.2522,0.0696 -0.317229,0.07921 -0.08033,0.01187 -0.118168,0.02917 -0.118168,0.05413 0,0.02014 0.03346,0.105809 0.07435,0.190287 0.04089,0.08454 0.120258,0.200402 0.176436,0.257491 0.05612,0.05712 0.174705,0.137332 0.26344,0.178296 0.128742,0.05942 0.205524,0.07698 0.379954,0.08681 0.15394,0.0087 0.274298,8.4e-5 0.406914,-0.02902 0.103558,-0.02274 0.287023,-0.08883 0.407702,-0.146857 0.120702,-0.05804 0.308983,-0.172279 0.418445,-0.253923 0.109477,-0.08162 0.272781,-0.224123 0.362833,-0.31664 0.09009,-0.09253 0.21606,-0.238487 0.279895,-0.324366 z m 2.132936,-1.175405 c -0.03101,-0.04586 -0.09544,-0.102732 -0.143045,-0.126338 -0.07366,-0.03652 -0.159805,-0.04296 -0.577959,-0.04296 l -0.491376,-3.8e-5 v 0.73644 h 0.479883 c 0.448184,0 0.487226,-0.0038 0.590884,-0.05521 0.07228,-0.03591 0.126238,-0.08523 0.154515,-0.141138 0.02389,-0.04724 0.04357,-0.131237 0.04357,-0.186627 2.3e-5,-0.06386 -0.0206,-0.131215 -0.05643,-0.184108 z m -3.540181,0.08148 c -0.02136,-0.03009 -0.07121,-0.07121 -0.110695,-0.09141 -0.04188,-0.02136 -0.13855,-0.03668 -0.231511,-0.03668 -0.133688,0 -0.18946,0.01462 -0.343347,0.08983 -0.133527,0.06531 -0.234658,0.140855 -0.370306,0.276649 -0.129133,0.129277 -0.219483,0.248639 -0.293364,0.387534 -0.05873,0.110365 -0.12257,0.275415 -0.141957,0.366761 -0.01937,0.09132 -0.02955,0.171674 -0.02259,0.178519 0.0069,0.0069 0.09921,-0.0054 0.205057,-0.02688 0.105832,-0.02159 0.281012,-0.07565 0.389249,-0.120089 0.108221,-0.04449 0.294764,-0.145479 0.414532,-0.224528 0.119753,-0.07903 0.268976,-0.201375 0.33164,-0.271871 0.06263,-0.07052 0.135977,-0.17309 0.163021,-0.227974 0.02703,-0.0549 0.04916,-0.132509 0.04916,-0.1725 0,-0.03997 -0.01746,-0.09734 -0.03882,-0.12741 z m 3.64001,1.440514 c -0.03093,-0.04586 -0.106031,-0.108259 -0.166987,-0.138649 -0.104071,-0.05191 -0.141552,-0.05521 -0.615577,-0.05521 H 29.38399 v 0.888037 l 0.516253,-0.0083 c 0.46558,-0.0077 0.526031,-0.01332 0.615784,-0.05949 0.0588,-0.03032 0.122256,-0.0906 0.155096,-0.147302 0.04058,-0.07014 0.05566,-0.136383 0.05597,-0.245822 2.83e-4,-0.11499 -0.01271,-0.169177 -0.05582,-0.233196 z"
               fill="#1a1a1a"
               id="path11"
               style="stroke-width:0.202586" /><path
               fill-rule="evenodd"
               clip-rule="evenodd"
               d="m 32.2576,84.723342 -0.01271,-3.939966 h 0.954767 c 0.744119,0 1.003494,0.0083 1.175711,0.03759 0.133787,0.02274 0.292291,0.07075 0.40173,0.12172 0.102571,0.04778 0.237997,0.137593 0.313118,0.207646 0.07282,0.06792 0.161237,0.176114 0.19655,0.24037 0.0353,0.06432 0.08275,0.187737 0.105404,0.274382 0.0255,0.09755 0.04081,0.251695 0.0402,0.405038 -5.21e-4,0.140816 -0.0173,0.308715 -0.03897,0.389425 -0.0209,0.07808 -0.06187,0.188534 -0.09102,0.2455 -0.02917,0.05697 -0.09095,0.154974 -0.137317,0.217798 -0.0464,0.06286 -0.159737,0.164461 -0.251894,0.225823 -0.09218,0.06133 -0.234758,0.133343 -0.316869,0.15992 -0.0821,0.02665 -0.236864,0.06034 -0.343891,0.07496 -0.107065,0.01462 -0.383958,0.02657 -0.61537,0.02657 h -0.420757 l -0.01325,1.313311 z m 2.121036,-2.916334 c -0.0343,-0.06064 -0.09456,-0.11878 -0.155525,-0.15012 -0.08822,-0.04533 -0.150985,-0.06011 -0.553564,-0.06692 l -0.454057,4.67e-4 v 1.009512 l 0.40428,-1.45e-4 c 0.222376,-7.7e-5 0.446599,-0.01171 0.498282,-0.02588 0.05168,-0.01416 0.132915,-0.05949 0.180463,-0.100664 0.06034,-0.0523 0.0986,-0.116039 0.126575,-0.211053 0.02573,-0.08742 0.03461,-0.175501 0.02481,-0.246166 -0.0084,-0.06049 -0.0405,-0.154568 -0.07128,-0.209024 z"
               fill="#1a1a1a"
               id="path12"
               style="stroke-width:0.202586" /><path
               d="m 36.048518,82.78404 0.0061,1.939302 h 0.945432 l 0.01317,-1.509027 1.65381,-0.01294 0.01355,-0.797802 h -1.668121 v -0.785551 h 1.890965 v -0.834638 h -2.855922 c -7.66e-4,0.341341 -0.0015,1.254576 6.66e-4,2.000664 z"
               fill="#1a1a1a"
               id="path13"
               style="stroke-width:0.202586" /></g></g></g><g
         id="g109"><g
           id="g99"><rect
             style="fill:#efeeef;fill-opacity:1;stroke:#000000;stroke-width:0.529164;stroke-dasharray:none;stroke-opacity:1"
             id="rect21"
             width="31.574837"
             height="18.4352"
             x="65.61792"
             y="32.731247"
             ry="1.8506361" /><text
             xml:space="preserve"
             style="font-style:normal;font-variant:normal;font-weight:normal;font-stretch:normal;font-size:22.5778px;font-family:sans-serif;-inkscape-font-specification:'sans-serif, Normal';font-variant-ligatures:normal;font-variant-caps:normal;font-variant-numeric:normal;font-variant-east-asian:normal;writing-mode:lr-tb;direction:ltr;fill:#000000;fill-opacity:1;stroke:none;stroke-width:0;stroke-dasharray:none"
             x="72.616783"
             y="43.416405"
             id="text8"><tspan
               sodipodi:role="line"
               id="tspan8"
               style="font-style:normal;font-variant:normal;font-weight:normal;font-stretch:normal;font-size:5.64444px;font-family:sans-serif;-inkscape-font-specification:'sans-serif, Normal';font-variant-ligatures:normal;font-variant-caps:normal;font-variant-numeric:normal;font-variant-east-asian:normal;fill:#000000;fill-opacity:1;stroke:none;stroke-width:0;stroke-dasharray:none"
               x="72.616783"
               y="43.416405">bridge</tspan></text></g><g
           id="g65"
           transform="translate(58.550442,-21.51228)"><rect
             style="fill:#fff2cc;fill-opacity:1;stroke:#ffdd76;stroke-width:0.264583;stroke-dasharray:none;stroke-opacity:1"
             id="rect52"
             width="17.992134"
             height="9.2567034"
             x="26.132042"
             y="68.314957"
             ry="0.92924339" /><g
             id="g64"
             transform="matrix(0.6249275,0,0,0.6249275,17.526143,21.155862)"><path
               fill-rule="evenodd"
               clip-rule="evenodd"
               d="m 22.217818,78.397743 c 0.09805,0.04954 0.136866,0.168052 0.08668,0.26475 -0.09906,0.190937 -0.152669,0.464799 -0.173167,0.746294 -0.02021,0.277835 -0.0069,0.54077 0.01394,0.695522 0.0144,0.107708 -0.0624,0.206535 -0.171589,0.22073 -0.109202,0.01416 -0.209414,-0.06164 -0.223824,-0.169322 -0.02435,-0.181995 -0.03851,-0.471652 -0.01639,-0.775222 0.02182,-0.299911 0.08047,-0.636259 0.215922,-0.897317 0.05015,-0.0967 0.170334,-0.134952 0.268387,-0.08543 z"
               fill="#1a1a1a"
               id="path52"
               style="stroke-width:0.202586" /><path
               d="m 21.061348,81.511838 c 0.11973,-0.561183 -1.097244,-0.652774 -1.720715,-0.628403 -2.457883,0.05214 -1.4305,1.538767 -0.06968,1.704499 0.560019,0.06822 1.64074,-0.374617 1.790408,-1.076096 z"
               fill="#cfedfc"
               id="path53"
               style="stroke-width:0.202586" /><path
               d="m 18.037466,81.195052 c 0.06899,-0.05612 0.158558,-0.106942 0.270906,-0.150517 l 0.03499,0.108565 0.178304,0.222798 0.261189,0.233586 0.200662,-0.0294 1.003012,-0.102586 1.054358,0.111261 c -0.03315,0.104332 -0.08684,0.2024 -0.155869,0.293287 -0.312061,-0.06164 -1.0406,-0.07997 -1.436304,-0.08069 -0.105886,0.122731 -0.144216,0.540058 -0.1525,0.789279 -0.0086,-7.65e-4 -0.017,-0.0015 -0.02534,-0.0031 -0.111062,-0.01355 -0.219912,-0.03583 -0.324818,-0.06547 -0.0097,-0.194866 0.05842,-0.473505 0.108015,-0.62818 -0.310185,0.01662 -0.63828,0.167799 -0.819233,0.273103 -0.08341,-0.06608 -0.155717,-0.136598 -0.214353,-0.20933 l 0.402052,-0.21792 c -0.06202,-0.03109 -0.258165,-0.336357 -0.385122,-0.545081 z"
               fill="#00ace6"
               id="path54"
               style="stroke-width:0.202586" /><path
               d="m 20.85283,82.188822 0.361371,0.24106 -1.632884,2.383145 -0.39235,-0.261726 -0.301357,-0.438436 -0.150893,-0.723884 0.270224,-0.635898 0.648563,0.195172 z"
               fill="#ffe100"
               id="path55"
               style="stroke-width:0.202586" /><path
               fill-rule="evenodd"
               clip-rule="evenodd"
               d="m 20.52407,80.605386 c 0.484408,-1.030385 1.662753,-0.777756 2.219258,-0.406554 l -1.52931,2.231961 -0.175518,-0.11708 c -0.222843,0.254979 -0.678033,0.447985 -0.877769,0.512608 0.02029,0.286556 0.264053,0.507517 0.3834,0.58217 l -0.50244,0.733286 C 19.455232,83.750583 19.283926,83.191138 19.271576,82.960331 L 19.0539,82.948692 c -0.384341,0.859531 0.218335,1.525658 0.590034,1.773601 l -0.64896,0.947156 0.112853,-0.889278 C 18.376265,84.161616 18.50715,83.227002 18.664031,82.837025 18.160037,82.73826 17.28533,82.01685 17.449653,81.403762 17.735765,80.336257 19.6132,80.353951 20.52407,80.605394 Z m 0.537623,0.903634 c 0.11388,-0.558021 -1.099289,-0.649168 -1.721451,-0.624857 -0.395505,0.0084 -0.700767,0.0539 -0.928917,0.12512 0.10153,0.311111 0.336961,0.465825 0.451301,0.505977 0.721363,-0.161826 1.658021,-0.08717 2.199067,-0.0061 z m -0.04548,0.14734 c -0.377312,-0.04831 -0.939529,-0.0608 -1.231215,-0.06011 -0.39611,0.266786 -0.446913,0.716685 -0.413215,0.999138 0.536528,0.0091 1.406051,-0.359794 1.64443,-0.939055 z m -1.82533,0.921038 c -0.07236,-0.409142 0.160602,-0.795191 0.303585,-0.952316 -0.733553,0.02764 -1.195994,0.232974 -1.421909,0.394173 0.241734,0.260913 0.656809,0.483941 1.118324,0.558143 z m -1.24679,-0.726961 c 0.181337,-0.109316 0.506223,-0.209896 0.683003,-0.254872 -0.255576,-0.188549 -0.367174,-0.385383 -0.40663,-0.512769 -0.39977,0.189582 -0.445083,0.486376 -0.276373,0.767641 z"
               fill="#1a1a1a"
               id="path56"
               style="stroke-width:0.202586" /><path
               fill-rule="evenodd"
               clip-rule="evenodd"
               d="m 24.632746,80.007879 c -0.0831,-0.07129 -0.209023,-0.06263 -0.281288,0.01929 -0.142662,0.161842 -0.380276,0.312957 -0.637376,0.43663 -0.253785,0.122034 -0.506085,0.207706 -0.659359,0.246404 -0.106667,0.02695 -0.170984,0.134093 -0.143657,0.239336 0.02733,0.105243 0.135954,0.168733 0.242637,0.141789 0.180241,-0.04548 0.457931,-0.140533 0.735207,-0.273899 0.273922,-0.131736 0.568419,-0.310767 0.763491,-0.532042 0.07228,-0.08197 0.06348,-0.206221 -0.01968,-0.277529 z"
               fill="#1a1a1a"
               id="path57"
               style="stroke-width:0.202586" /><path
               d="m 22.134979,82.228286 c 0.483168,-0.318753 1.02282,0.761401 1.232234,1.34132 0.866889,2.269885 -0.914155,1.883186 -1.577135,0.698991 -0.272843,-0.487326 -0.259068,-1.641866 0.344901,-2.040311 z"
               fill="#cfedfc"
               id="path58"
               style="stroke-width:0.202586" /><path
               d="m 23.559544,84.879105 c 0.02711,-0.08409 0.0415,-0.185019 0.04066,-0.304121 l -0.115166,0.0084 -0.276005,-0.08025 -0.317008,-0.152095 -0.04717,-0.194666 -0.277283,-0.956597 -0.497571,-0.923894 c -0.08576,0.06922 -0.157975,0.154936 -0.217736,0.251994 0.174299,0.262759 0.462969,0.92299 0.611143,1.285012 -0.07596,0.142677 -0.454202,0.333293 -0.685514,0.433758 0.0038,0.0077 0.008,0.01493 0.01202,0.0222 0.05413,0.09663 0.115679,0.187975 0.18263,0.272981 0.186888,-0.0637 0.423568,-0.229934 0.550548,-0.332972 0.09994,0.290209 0.08004,0.646924 0.04847,0.851859 0.09321,0.05176 0.186504,0.09167 0.276755,0.118252 l 0.05513,-0.449317 c 0.05237,0.04518 0.412549,0.111016 0.656159,0.149483 z"
               fill="#00ace6"
               id="path59"
               style="stroke-width:0.202586" /><path
               d="m 21.57535,82.670451 -0.361371,-0.241059 -1.632884,2.383145 0.39235,0.261725 0.524653,0.112517 0.737052,-0.131583 0.497395,-0.484385 -0.425275,-0.521092 z"
               fill="#ffe100"
               id="path60"
               style="stroke-width:0.202586" /><path
               fill-rule="evenodd"
               clip-rule="evenodd"
               d="m 23.187676,82.382027 c 0.78859,-0.827503 0.111874,-1.812261 -0.444631,-2.183455 l -1.529288,2.231953 0.175525,0.117096 c -0.156766,0.299036 -0.168657,0.787739 -0.155004,0.994681 -0.277093,0.08822 -0.575732,-0.0526 -0.690431,-0.134071 l -0.502417,0.733278 c 0.586451,0.391194 1.176462,0.339556 1.39815,0.264841 l 0.09206,0.194973 c -0.665177,0.6722 -1.516263,0.368622 -1.887963,0.120702 l -0.648976,0.947148 0.79431,-0.434708 c 0.85437,0.43931 1.684606,-0.02879 1.992946,-0.317796 0.280683,0.424662 1.285142,0.956711 1.800546,0.577798 0.897378,-0.659765 0.181091,-2.372172 -0.394824,-3.11244 z m -1.050224,-0.155525 c 0.482395,-0.312207 1.020225,0.764601 1.229194,1.343311 0.1395,0.365245 0.210425,0.661709 0.228472,0.897133 -0.330437,0.02297 -0.563672,-0.13492 -0.644038,-0.224651 -0.116628,-0.720781 -0.535885,-1.55055 -0.813628,-2.015793 z m -0.121613,0.09657 c 0.186076,0.327436 0.40732,0.837549 0.515319,1.104924 -0.103321,0.462081 -0.507524,0.676258 -0.785712,0.750644 -0.208479,-0.487846 -0.18557,-1.421465 0.270393,-1.855568 z m -0.186053,2.0145 c 0.411791,-0.0862 0.688041,-0.443383 0.782549,-0.632843 0.247377,0.681931 0.226573,1.181867 0.159147,1.448776 -0.335483,-0.124102 -0.699909,-0.421033 -0.941696,-0.815933 z m 1.148338,0.870656 c 0.03522,-0.20678 0.0088,-0.541719 -0.01478,-0.720337 0.272559,0.163726 0.499277,0.192553 0.633769,0.181229 -0.02933,0.436661 -0.291579,0.588763 -0.618984,0.539109 z"
               fill="#1a1a1a"
               id="path61"
               style="stroke-width:0.202586" /><path
               fill-rule="evenodd"
               clip-rule="evenodd"
               d="m 28.438557,82.913655 v -2.130279 h 1.042759 c 0.814133,0 1.084687,0.0079 1.233888,0.03606 0.105166,0.01983 0.251334,0.06324 0.324832,0.09648 0.07358,0.03323 0.18992,0.112271 0.258601,0.175677 0.06868,0.0634 0.152624,0.171858 0.186497,0.241045 0.03384,0.06922 0.07305,0.1974 0.08695,0.284933 0.01715,0.107899 0.01715,0.210669 2.3e-5,0.319136 -0.01394,0.08798 -0.05352,0.217576 -0.08802,0.28798 -0.03453,0.07037 -0.112739,0.171405 -0.173825,0.224482 -0.0611,0.05306 -0.169644,0.124102 -0.241197,0.157815 l -0.130081,0.06133 0.07465,0.01876 c 0.04104,0.01034 0.121881,0.03859 0.179636,0.06279 0.05773,0.0242 0.157263,0.09151 0.221182,0.149545 0.06394,0.05804 0.14169,0.145235 0.172807,0.193817 0.03116,0.04854 0.07435,0.147218 0.09605,0.219261 0.02213,0.0735 0.03943,0.220233 0.03943,0.334648 0,0.140495 -0.01616,0.252246 -0.05207,0.360246 -0.02864,0.08612 -0.09303,0.209697 -0.143067,0.274619 -0.05008,0.06493 -0.152524,0.159767 -0.227806,0.210693 -0.07527,0.05092 -0.207576,0.115556 -0.293998,0.143595 -0.08644,0.02802 -0.259957,0.06164 -0.385643,0.07473 -0.125664,0.01309 -0.667904,0.02389 -1.205007,0.02419 l -0.976527,4.29e-4 -0.0023,-1.116937 -0.06585,0.08592 c -0.03629,0.04724 -0.14489,0.163886 -0.24142,0.259168 -0.09653,0.0953 -0.24697,0.22096 -0.334288,0.279282 -0.08732,0.05827 -0.249666,0.148014 -0.360743,0.199345 -0.111124,0.05138 -0.285998,0.117019 -0.388622,0.145946 -0.108711,0.03063 -0.29661,0.05835 -0.450228,0.06639 -0.199123,0.01041 -0.310308,0.0038 -0.454164,-0.02802 -0.104776,-0.02297 -0.268042,-0.08008 -0.362788,-0.126858 -0.09481,-0.04678 -0.228678,-0.135043 -0.297543,-0.196145 -0.06891,-0.0611 -0.177424,-0.188549 -0.241236,-0.283279 -0.06378,-0.09471 -0.142884,-0.248387 -0.175701,-0.341517 -0.03285,-0.09311 -0.07128,-0.260285 -0.0854,-0.3715 -0.01417,-0.111246 -0.01861,-0.27449 -0.0099,-0.362796 0.0087,-0.08833 0.03744,-0.241342 0.06401,-0.340023 0.02642,-0.09867 0.07753,-0.236757 0.113474,-0.306855 0.03591,-0.07006 0.110749,-0.193709 0.166345,-0.274703 0.05559,-0.08102 0.180907,-0.224628 0.278555,-0.319136 0.09762,-0.09451 0.24063,-0.208909 0.317757,-0.254191 0.07714,-0.04533 0.210547,-0.111583 0.296441,-0.147294 0.13839,-0.0575 0.326449,-0.07721 0.438399,-0.07721 0.111973,0 0.299542,0.01723 0.423322,0.08151 0.07328,0.03813 0.182408,0.119179 0.242522,0.18018 0.07694,0.07812 0.1211,0.151046 0.149185,0.246366 0.02764,0.09396 0.03476,0.175839 0.0232,0.26733 -0.0092,0.07251 -0.05168,0.200884 -0.09437,0.285224 -0.04908,0.09681 -0.146995,0.222561 -0.265752,0.341134 -0.103421,0.10326 -0.286013,0.250577 -0.405735,0.327359 -0.119691,0.07678 -0.287613,0.170801 -0.373185,0.208947 -0.08556,0.03813 -0.245095,0.09714 -0.354572,0.131115 -0.109477,0.03392 -0.2522,0.0696 -0.317229,0.07921 -0.08033,0.01187 -0.118168,0.02917 -0.118168,0.05413 0,0.02014 0.03346,0.105809 0.07435,0.190287 0.04089,0.08454 0.120258,0.200402 0.176436,0.257491 0.05612,0.05712 0.174705,0.137332 0.26344,0.178296 0.128742,0.05942 0.205524,0.07698 0.379954,0.08681 0.15394,0.0087 0.274298,8.4e-5 0.406914,-0.02902 0.103558,-0.02274 0.287023,-0.08883 0.407702,-0.146857 0.120702,-0.05804 0.308983,-0.172279 0.418445,-0.253923 0.109477,-0.08162 0.272781,-0.224123 0.362833,-0.31664 0.09009,-0.09253 0.21606,-0.238487 0.279895,-0.324366 z m 2.132936,-1.175405 c -0.03101,-0.04586 -0.09544,-0.102732 -0.143045,-0.126338 -0.07366,-0.03652 -0.159805,-0.04296 -0.577959,-0.04296 l -0.491376,-3.8e-5 v 0.73644 h 0.479883 c 0.448184,0 0.487226,-0.0038 0.590884,-0.05521 0.07228,-0.03591 0.126238,-0.08523 0.154515,-0.141138 0.02389,-0.04724 0.04357,-0.131237 0.04357,-0.186627 2.3e-5,-0.06386 -0.0206,-0.131215 -0.05643,-0.184108 z m -3.540181,0.08148 c -0.02136,-0.03009 -0.07121,-0.07121 -0.110695,-0.09141 -0.04188,-0.02136 -0.13855,-0.03668 -0.231511,-0.03668 -0.133688,0 -0.18946,0.01462 -0.343347,0.08983 -0.133527,0.06531 -0.234658,0.140855 -0.370306,0.276649 -0.129133,0.129277 -0.219483,0.248639 -0.293364,0.387534 -0.05873,0.110365 -0.12257,0.275415 -0.141957,0.366761 -0.01937,0.09132 -0.02955,0.171674 -0.02259,0.178519 0.0069,0.0069 0.09921,-0.0054 0.205057,-0.02688 0.105832,-0.02159 0.281012,-0.07565 0.389249,-0.120089 0.108221,-0.04449 0.294764,-0.145479 0.414532,-0.224528 0.119753,-0.07903 0.268976,-0.201375 0.33164,-0.271871 0.06263,-0.07052 0.135977,-0.17309 0.163021,-0.227974 0.02703,-0.0549 0.04916,-0.132509 0.04916,-0.1725 0,-0.03997 -0.01746,-0.09734 -0.03882,-0.12741 z m 3.64001,1.440514 c -0.03093,-0.04586 -0.106031,-0.108259 -0.166987,-0.138649 -0.104071,-0.05191 -0.141552,-0.05521 -0.615577,-0.05521 H 29.38399 v 0.888037 l 0.516253,-0.0083 c 0.46558,-0.0077 0.526031,-0.01332 0.615784,-0.05949 0.0588,-0.03032 0.122256,-0.0906 0.155096,-0.147302 0.04058,-0.07014 0.05566,-0.136383 0.05597,-0.245822 2.83e-4,-0.11499 -0.01271,-0.169177 -0.05582,-0.233196 z"
               fill="#1a1a1a"
               id="path62"
               style="stroke-width:0.202586" /><path
               fill-rule="evenodd"
               clip-rule="evenodd"
               d="m 32.2576,84.723342 -0.01271,-3.939966 h 0.954767 c 0.744119,0 1.003494,0.0083 1.175711,0.03759 0.133787,0.02274 0.292291,0.07075 0.40173,0.12172 0.102571,0.04778 0.237997,0.137593 0.313118,0.207646 0.07282,0.06792 0.161237,0.176114 0.19655,0.24037 0.0353,0.06432 0.08275,0.187737 0.105404,0.274382 0.0255,0.09755 0.04081,0.251695 0.0402,0.405038 -5.21e-4,0.140816 -0.0173,0.308715 -0.03897,0.389425 -0.0209,0.07808 -0.06187,0.188534 -0.09102,0.2455 -0.02917,0.05697 -0.09095,0.154974 -0.137317,0.217798 -0.0464,0.06286 -0.159737,0.164461 -0.251894,0.225823 -0.09218,0.06133 -0.234758,0.133343 -0.316869,0.15992 -0.0821,0.02665 -0.236864,0.06034 -0.343891,0.07496 -0.107065,0.01462 -0.383958,0.02657 -0.61537,0.02657 h -0.420757 l -0.01325,1.313311 z m 2.121036,-2.916334 c -0.0343,-0.06064 -0.09456,-0.11878 -0.155525,-0.15012 -0.08822,-0.04533 -0.150985,-0.06011 -0.553564,-0.06692 l -0.454057,4.67e-4 v 1.009512 l 0.40428,-1.45e-4 c 0.222376,-7.7e-5 0.446599,-0.01171 0.498282,-0.02588 0.05168,-0.01416 0.132915,-0.05949 0.180463,-0.100664 0.06034,-0.0523 0.0986,-0.116039 0.126575,-0.211053 0.02573,-0.08742 0.03461,-0.175501 0.02481,-0.246166 -0.0084,-0.06049 -0.0405,-0.154568 -0.07128,-0.209024 z"
               fill="#1a1a1a"
               id="path63"
               style="stroke-width:0.202586" /><path
               d="m 36.048518,82.78404 0.0061,1.939302 h 0.945432 l 0.01317,-1.509027 1.65381,-0.01294 0.01355,-0.797802 h -1.668121 v -0.785551 h 1.890965 v -0.834638 h -2.855922 c -7.66e-4,0.341341 -0.0015,1.254576 6.66e-4,2.000664 z"
               fill="#1a1a1a"
               id="path64"
               style="stroke-width:0.202586" /></g></g></g></g><text
       xml:space="preserve"
       style="font-size:5.64444px;font-family:sans-serif;-inkscape-font-specification:'sans-serif, Normal';writing-mode:lr-tb;direction:ltr;fill:#000000;fill-opacity:1;stroke:none;stroke-width:0.264583;stroke-dasharray:none;stroke-opacity:1"
       x="11.981425"
       y="10.660019"
       id="text94"><tspan
         sodipodi:role="line"
         id="tspan94"
         style="fill:#000000;fill-opacity:1;stroke-width:0.264583"
         x="11.981425"
         y="10.660019">Traditional Bridge Mode</tspan></text><text
       xml:space="preserve"
       style="font-size:5.64444px;font-family:sans-serif;-inkscape-font-specification:'sans-serif, Normal';writing-mode:lr-tb;direction:ltr;fill:#000000;fill-opacity:1;stroke:none;stroke-width:0.264583;stroke-dasharray:none;stroke-opacity:1"
       x="11.981425"
       y="88.447556"
       id="text96"><tspan
         sodipodi:role="line"
         id="tspan96"
         style="fill:#000000;fill-opacity:1;stroke-width:0.264583"
         x="11.981425"
         y="88.447556">VLAN-aware Bridge Mode (SVD)</tspan></text><path
       style="fill:none;fill-opacity:1;stroke:#000000;stroke-width:0.381027;stroke-dasharray:none;stroke-opacity:1"
       d="M 11.981426,91.589618 H 199.68524"
       id="path97" /><path
       style="fill:none;fill-opacity:1;stroke:#000000;stroke-width:0.381027;stroke-dasharray:none;stroke-opacity:1"
       d="M 11.981426,13.802069 H 199.68524"
       id="path98" /><g
       id="g14"
       transform="translate(24.428077)"><g
         id="g108"
         transform="translate(0,-22.225008)"><g
           id="g103"><rect
             style="fill:#efeeef;fill-opacity:1;stroke:#000000;stroke-width:0.529164;stroke-dasharray:none;stroke-opacity:1"
             id="rect67"
             width="31.574837"
             height="18.4352"
             x="65.618019"
             y="122.02836"
             ry="1.8506361" /><text
             xml:space="preserve"
             style="font-style:normal;font-variant:normal;font-weight:normal;font-stretch:normal;font-size:22.5778px;font-family:sans-serif;-inkscape-font-specification:'sans-serif, Normal';font-variant-ligatures:normal;font-variant-caps:normal;font-variant-numeric:normal;font-variant-east-asian:normal;writing-mode:lr-tb;direction:ltr;fill:#000000;fill-opacity:1;stroke:none;stroke-width:0;stroke-dasharray:none"
             x="72.616882"
             y="132.71352"
             id="text67"><tspan
               sodipodi:role="line"
               id="tspan67"
               style="font-style:normal;font-variant:normal;font-weight:normal;font-stretch:normal;font-size:5.64444px;font-family:sans-serif;-inkscape-font-specification:'sans-serif, Normal';font-variant-ligatures:normal;font-variant-caps:normal;font-variant-numeric:normal;font-variant-east-asian:normal;fill:#000000;fill-opacity:1;stroke:none;stroke-width:0;stroke-dasharray:none"
               x="72.616882"
               y="132.71352">bridge</tspan></text></g><g
           id="g94"
           transform="translate(58.550541,67.784829)"><rect
             style="fill:#fff2cc;fill-opacity:1;stroke:#ffdd76;stroke-width:0.264583;stroke-dasharray:none;stroke-opacity:1"
             id="rect81"
             width="17.992134"
             height="9.2567034"
             x="26.132042"
             y="68.314957"
             ry="0.92924339" /><g
             id="g93"
             transform="matrix(0.6249275,0,0,0.6249275,17.526143,21.155862)"><path
               fill-rule="evenodd"
               clip-rule="evenodd"
               d="m 22.217818,78.397743 c 0.09805,0.04954 0.136866,0.168052 0.08668,0.26475 -0.09906,0.190937 -0.152669,0.464799 -0.173167,0.746294 -0.02021,0.277835 -0.0069,0.54077 0.01394,0.695522 0.0144,0.107708 -0.0624,0.206535 -0.171589,0.22073 -0.109202,0.01416 -0.209414,-0.06164 -0.223824,-0.169322 -0.02435,-0.181995 -0.03851,-0.471652 -0.01639,-0.775222 0.02182,-0.299911 0.08047,-0.636259 0.215922,-0.897317 0.05015,-0.0967 0.170334,-0.134952 0.268387,-0.08543 z"
               fill="#1a1a1a"
               id="path81"
               style="stroke-width:0.202586" /><path
               d="m 21.061348,81.511838 c 0.11973,-0.561183 -1.097244,-0.652774 -1.720715,-0.628403 -2.457883,0.05214 -1.4305,1.538767 -0.06968,1.704499 0.560019,0.06822 1.64074,-0.374617 1.790408,-1.076096 z"
               fill="#cfedfc"
               id="path82"
               style="stroke-width:0.202586" /><path
               d="m 18.037466,81.195052 c 0.06899,-0.05612 0.158558,-0.106942 0.270906,-0.150517 l 0.03499,0.108565 0.178304,0.222798 0.261189,0.233586 0.200662,-0.0294 1.003012,-0.102586 1.054358,0.111261 c -0.03315,0.104332 -0.08684,0.2024 -0.155869,0.293287 -0.312061,-0.06164 -1.0406,-0.07997 -1.436304,-0.08069 -0.105886,0.122731 -0.144216,0.540058 -0.1525,0.789279 -0.0086,-7.65e-4 -0.017,-0.0015 -0.02534,-0.0031 -0.111062,-0.01355 -0.219912,-0.03583 -0.324818,-0.06547 -0.0097,-0.194866 0.05842,-0.473505 0.108015,-0.62818 -0.310185,0.01662 -0.63828,0.167799 -0.819233,0.273103 -0.08341,-0.06608 -0.155717,-0.136598 -0.214353,-0.20933 l 0.402052,-0.21792 c -0.06202,-0.03109 -0.258165,-0.336357 -0.385122,-0.545081 z"
               fill="#00ace6"
               id="path83"
               style="stroke-width:0.202586" /><path
               d="m 20.85283,82.188822 0.361371,0.24106 -1.632884,2.383145 -0.39235,-0.261726 -0.301357,-0.438436 -0.150893,-0.723884 0.270224,-0.635898 0.648563,0.195172 z"
               fill="#ffe100"
               id="path84"
               style="stroke-width:0.202586" /><path
               fill-rule="evenodd"
               clip-rule="evenodd"
               d="m 20.52407,80.605386 c 0.484408,-1.030385 1.662753,-0.777756 2.219258,-0.406554 l -1.52931,2.231961 -0.175518,-0.11708 c -0.222843,0.254979 -0.678033,0.447985 -0.877769,0.512608 0.02029,0.286556 0.264053,0.507517 0.3834,0.58217 l -0.50244,0.733286 C 19.455232,83.750583 19.283926,83.191138 19.271576,82.960331 L 19.0539,82.948692 c -0.384341,0.859531 0.218335,1.525658 0.590034,1.773601 l -0.64896,0.947156 0.112853,-0.889278 C 18.376265,84.161616 18.50715,83.227002 18.664031,82.837025 18.160037,82.73826 17.28533,82.01685 17.449653,81.403762 17.735765,80.336257 19.6132,80.353951 20.52407,80.605394 Z m 0.537623,0.903634 c 0.11388,-0.558021 -1.099289,-0.649168 -1.721451,-0.624857 -0.395505,0.0084 -0.700767,0.0539 -0.928917,0.12512 0.10153,0.311111 0.336961,0.465825 0.451301,0.505977 0.721363,-0.161826 1.658021,-0.08717 2.199067,-0.0061 z m -0.04548,0.14734 c -0.377312,-0.04831 -0.939529,-0.0608 -1.231215,-0.06011 -0.39611,0.266786 -0.446913,0.716685 -0.413215,0.999138 0.536528,0.0091 1.406051,-0.359794 1.64443,-0.939055 z m -1.82533,0.921038 c -0.07236,-0.409142 0.160602,-0.795191 0.303585,-0.952316 -0.733553,0.02764 -1.195994,0.232974 -1.421909,0.394173 0.241734,0.260913 0.656809,0.483941 1.118324,0.558143 z m -1.24679,-0.726961 c 0.181337,-0.109316 0.506223,-0.209896 0.683003,-0.254872 -0.255576,-0.188549 -0.367174,-0.385383 -0.40663,-0.512769 -0.39977,0.189582 -0.445083,0.486376 -0.276373,0.767641 z"
               fill="#1a1a1a"
               id="path85"
               style="stroke-width:0.202586" /><path
               fill-rule="evenodd"
               clip-rule="evenodd"
               d="m 24.632746,80.007879 c -0.0831,-0.07129 -0.209023,-0.06263 -0.281288,0.01929 -0.142662,0.161842 -0.380276,0.312957 -0.637376,0.43663 -0.253785,0.122034 -0.506085,0.207706 -0.659359,0.246404 -0.106667,0.02695 -0.170984,0.134093 -0.143657,0.239336 0.02733,0.105243 0.135954,0.168733 0.242637,0.141789 0.180241,-0.04548 0.457931,-0.140533 0.735207,-0.273899 0.273922,-0.131736 0.568419,-0.310767 0.763491,-0.532042 0.07228,-0.08197 0.06348,-0.206221 -0.01968,-0.277529 z"
               fill="#1a1a1a"
               id="path86"
               style="stroke-width:0.202586" /><path
               d="m 22.134979,82.228286 c 0.483168,-0.318753 1.02282,0.761401 1.232234,1.34132 0.866889,2.269885 -0.914155,1.883186 -1.577135,0.698991 -0.272843,-0.487326 -0.259068,-1.641866 0.344901,-2.040311 z"
               fill="#cfedfc"
               id="path87"
               style="stroke-width:0.202586" /><path
               d="m 23.559544,84.879105 c 0.02711,-0.08409 0.0415,-0.185019 0.04066,-0.304121 l -0.115166,0.0084 -0.276005,-0.08025 -0.317008,-0.152095 -0.04717,-0.194666 -0.277283,-0.956597 -0.497571,-0.923894 c -0.08576,0.06922 -0.157975,0.154936 -0.217736,0.251994 0.174299,0.262759 0.462969,0.92299 0.611143,1.285012 -0.07596,0.142677 -0.454202,0.333293 -0.685514,0.433758 0.0038,0.0077 0.008,0.01493 0.01202,0.0222 0.05413,0.09663 0.115679,0.187975 0.18263,0.272981 0.186888,-0.0637 0.423568,-0.229934 0.550548,-0.332972 0.09994,0.290209 0.08004,0.646924 0.04847,0.851859 0.09321,0.05176 0.186504,0.09167 0.276755,0.118252 l 0.05513,-0.449317 c 0.05237,0.04518 0.412549,0.111016 0.656159,0.149483 z"
               fill="#00ace6"
               id="path88"
               style="stroke-width:0.202586" /><path
               d="m 21.57535,82.670451 -0.361371,-0.241059 -1.632884,2.383145 0.39235,0.261725 0.524653,0.112517 0.737052,-0.131583 0.497395,-0.484385 -0.425275,-0.521092 z"
               fill="#ffe100"
               id="path89"
               style="stroke-width:0.202586" /><path
               fill-rule="evenodd"
               clip-rule="evenodd"
               d="m 23.187676,82.382027 c 0.78859,-0.827503 0.111874,-1.812261 -0.444631,-2.183455 l -1.529288,2.231953 0.175525,0.117096 c -0.156766,0.299036 -0.168657,0.787739 -0.155004,0.994681 -0.277093,0.08822 -0.575732,-0.0526 -0.690431,-0.134071 l -0.502417,0.733278 c 0.586451,0.391194 1.176462,0.339556 1.39815,0.264841 l 0.09206,0.194973 c -0.665177,0.6722 -1.516263,0.368622 -1.887963,0.120702 l -0.648976,0.947148 0.79431,-0.434708 c 0.85437,0.43931 1.684606,-0.02879 1.992946,-0.317796 0.280683,0.424662 1.285142,0.956711 1.800546,0.577798 0.897378,-0.659765 0.181091,-2.372172 -0.394824,-3.11244 z m -1.050224,-0.155525 c 0.482395,-0.312207 1.020225,0.764601 1.229194,1.343311 0.1395,0.365245 0.210425,0.661709 0.228472,0.897133 -0.330437,0.02297 -0.563672,-0.13492 -0.644038,-0.224651 -0.116628,-0.720781 -0.535885,-1.55055 -0.813628,-2.015793 z m -0.121613,0.09657 c 0.186076,0.327436 0.40732,0.837549 0.515319,1.104924 -0.103321,0.462081 -0.507524,0.676258 -0.785712,0.750644 -0.208479,-0.487846 -0.18557,-1.421465 0.270393,-1.855568 z m -0.186053,2.0145 c 0.411791,-0.0862 0.688041,-0.443383 0.782549,-0.632843 0.247377,0.681931 0.226573,1.181867 0.159147,1.448776 -0.335483,-0.124102 -0.699909,-0.421033 -0.941696,-0.815933 z m 1.148338,0.870656 c 0.03522,-0.20678 0.0088,-0.541719 -0.01478,-0.720337 0.272559,0.163726 0.499277,0.192553 0.633769,0.181229 -0.02933,0.436661 -0.291579,0.588763 -0.618984,0.539109 z"
               fill="#1a1a1a"
               id="path90"
               style="stroke-width:0.202586" /><path
               fill-rule="evenodd"
               clip-rule="evenodd"
               d="m 28.438557,82.913655 v -2.130279 h 1.042759 c 0.814133,0 1.084687,0.0079 1.233888,0.03606 0.105166,0.01983 0.251334,0.06324 0.324832,0.09648 0.07358,0.03323 0.18992,0.112271 0.258601,0.175677 0.06868,0.0634 0.152624,0.171858 0.186497,0.241045 0.03384,0.06922 0.07305,0.1974 0.08695,0.284933 0.01715,0.107899 0.01715,0.210669 2.3e-5,0.319136 -0.01394,0.08798 -0.05352,0.217576 -0.08802,0.28798 -0.03453,0.07037 -0.112739,0.171405 -0.173825,0.224482 -0.0611,0.05306 -0.169644,0.124102 -0.241197,0.157815 l -0.130081,0.06133 0.07465,0.01876 c 0.04104,0.01034 0.121881,0.03859 0.179636,0.06279 0.05773,0.0242 0.157263,0.09151 0.221182,0.149545 0.06394,0.05804 0.14169,0.145235 0.172807,0.193817 0.03116,0.04854 0.07435,0.147218 0.09605,0.219261 0.02213,0.0735 0.03943,0.220233 0.03943,0.334648 0,0.140495 -0.01616,0.252246 -0.05207,0.360246 -0.02864,0.08612 -0.09303,0.209697 -0.143067,0.274619 -0.05008,0.06493 -0.152524,0.159767 -0.227806,0.210693 -0.07527,0.05092 -0.207576,0.115556 -0.293998,0.143595 -0.08644,0.02802 -0.259957,0.06164 -0.385643,0.07473 -0.125664,0.01309 -0.667904,0.02389 -1.205007,0.02419 l -0.976527,4.29e-4 -0.0023,-1.116937 -0.06585,0.08592 c -0.03629,0.04724 -0.14489,0.163886 -0.24142,0.259168 -0.09653,0.0953 -0.24697,0.22096 -0.334288,0.279282 -0.08732,0.05827 -0.249666,0.148014 -0.360743,0.199345 -0.111124,0.05138 -0.285998,0.117019 -0.388622,0.145946 -0.108711,0.03063 -0.29661,0.05835 -0.450228,0.06639 -0.199123,0.01041 -0.310308,0.0038 -0.454164,-0.02802 -0.104776,-0.02297 -0.268042,-0.08008 -0.362788,-0.126858 -0.09481,-0.04678 -0.228678,-0.135043 -0.297543,-0.196145 -0.06891,-0.0611 -0.177424,-0.188549 -0.241236,-0.283279 -0.06378,-0.09471 -0.142884,-0.248387 -0.175701,-0.341517 -0.03285,-0.09311 -0.07128,-0.260285 -0.0854,-0.3715 -0.01417,-0.111246 -0.01861,-0.27449 -0.0099,-0.362796 0.0087,-0.08833 0.03744,-0.241342 0.06401,-0.340023 0.02642,-0.09867 0.07753,-0.236757 0.113474,-0.306855 0.03591,-0.07006 0.110749,-0.193709 0.166345,-0.274703 0.05559,-0.08102 0.180907,-0.224628 0.278555,-0.319136 0.09762,-0.09451 0.24063,-0.208909 0.317757,-0.254191 0.07714,-0.04533 0.210547,-0.111583 0.296441,-0.147294 0.13839,-0.0575 0.326449,-0.07721 0.438399,-0.07721 0.111973,0 0.299542,0.01723 0.423322,0.08151 0.07328,0.03813 0.182408,0.119179 0.242522,0.18018 0.07694,0.07812 0.1211,0.151046 0.149185,0.246366 0.02764,0.09396 0.03476,0.175839 0.0232,0.26733 -0.0092,0.07251 -0.05168,0.200884 -0.09437,0.285224 -0.04908,0.09681 -0.146995,0.222561 -0.265752,0.341134 -0.103421,0.10326 -0.286013,0.250577 -0.405735,0.327359 -0.119691,0.07678 -0.287613,0.170801 -0.373185,0.208947 -0.08556,0.03813 -0.245095,0.09714 -0.354572,0.131115 -0.109477,0.03392 -0.2522,0.0696 -0.317229,0.07921 -0.08033,0.01187 -0.118168,0.02917 -0.118168,0.05413 0,0.02014 0.03346,0.105809 0.07435,0.190287 0.04089,0.08454 0.120258,0.200402 0.176436,0.257491 0.05612,0.05712 0.174705,0.137332 0.26344,0.178296 0.128742,0.05942 0.205524,0.07698 0.379954,0.08681 0.15394,0.0087 0.274298,8.4e-5 0.406914,-0.02902 0.103558,-0.02274 0.287023,-0.08883 0.407702,-0.146857 0.120702,-0.05804 0.308983,-0.172279 0.418445,-0.253923 0.109477,-0.08162 0.272781,-0.224123 0.362833,-0.31664 0.09009,-0.09253 0.21606,-0.238487 0.279895,-0.324366 z m 2.132936,-1.175405 c -0.03101,-0.04586 -0.09544,-0.102732 -0.143045,-0.126338 -0.07366,-0.03652 -0.159805,-0.04296 -0.577959,-0.04296 l -0.491376,-3.8e-5 v 0.73644 h 0.479883 c 0.448184,0 0.487226,-0.0038 0.590884,-0.05521 0.07228,-0.03591 0.126238,-0.08523 0.154515,-0.141138 0.02389,-0.04724 0.04357,-0.131237 0.04357,-0.186627 2.3e-5,-0.06386 -0.0206,-0.131215 -0.05643,-0.184108 z m -3.540181,0.08148 c -0.02136,-0.03009 -0.07121,-0.07121 -0.110695,-0.09141 -0.04188,-0.02136 -0.13855,-0.03668 -0.231511,-0.03668 -0.133688,0 -0.18946,0.01462 -0.343347,0.08983 -0.133527,0.06531 -0.234658,0.140855 -0.370306,0.276649 -0.129133,0.129277 -0.219483,0.248639 -0.293364,0.387534 -0.05873,0.110365 -0.12257,0.275415 -0.141957,0.366761 -0.01937,0.09132 -0.02955,0.171674 -0.02259,0.178519 0.0069,0.0069 0.09921,-0.0054 0.205057,-0.02688 0.105832,-0.02159 0.281012,-0.07565 0.389249,-0.120089 0.108221,-0.04449 0.294764,-0.145479 0.414532,-0.224528 0.119753,-0.07903 0.268976,-0.201375 0.33164,-0.271871 0.06263,-0.07052 0.135977,-0.17309 0.163021,-0.227974 0.02703,-0.0549 0.04916,-0.132509 0.04916,-0.1725 0,-0.03997 -0.01746,-0.09734 -0.03882,-0.12741 z m 3.64001,1.440514 c -0.03093,-0.04586 -0.106031,-0.108259 -0.166987,-0.138649 -0.104071,-0.05191 -0.141552,-0.05521 -0.615577,-0.05521 H 29.38399 v 0.888037 l 0.516253,-0.0083 c 0.46558,-0.0077 0.526031,-0.01332 0.615784,-0.05949 0.0588,-0.03032 0.122256,-0.0906 0.155096,-0.147302 0.04058,-0.07014 0.05566,-0.136383 0.05597,-0.245822 2.83e-4,-0.11499 -0.01271,-0.169177 -0.05582,-0.233196 z"
               fill="#1a1a1a"
               id="path91"
               style="stroke-width:0.202586" /><path
               fill-rule="evenodd"
               clip-rule="evenodd"
               d="m 32.2576,84.723342 -0.01271,-3.939966 h 0.954767 c 0.744119,0 1.003494,0.0083 1.175711,0.03759 0.133787,0.02274 0.292291,0.07075 0.40173,0.12172 0.102571,0.04778 0.237997,0.137593 0.313118,0.207646 0.07282,0.06792 0.161237,0.176114 0.19655,0.24037 0.0353,0.06432 0.08275,0.187737 0.105404,0.274382 0.0255,0.09755 0.04081,0.251695 0.0402,0.405038 -5.21e-4,0.140816 -0.0173,0.308715 -0.03897,0.389425 -0.0209,0.07808 -0.06187,0.188534 -0.09102,0.2455 -0.02917,0.05697 -0.09095,0.154974 -0.137317,0.217798 -0.0464,0.06286 -0.159737,0.164461 -0.251894,0.225823 -0.09218,0.06133 -0.234758,0.133343 -0.316869,0.15992 -0.0821,0.02665 -0.236864,0.06034 -0.343891,0.07496 -0.107065,0.01462 -0.383958,0.02657 -0.61537,0.02657 h -0.420757 l -0.01325,1.313311 z m 2.121036,-2.916334 c -0.0343,-0.06064 -0.09456,-0.11878 -0.155525,-0.15012 -0.08822,-0.04533 -0.150985,-0.06011 -0.553564,-0.06692 l -0.454057,4.67e-4 v 1.009512 l 0.40428,-1.45e-4 c 0.222376,-7.7e-5 0.446599,-0.01171 0.498282,-0.02588 0.05168,-0.01416 0.132915,-0.05949 0.180463,-0.100664 0.06034,-0.0523 0.0986,-0.116039 0.126575,-0.211053 0.02573,-0.08742 0.03461,-0.175501 0.02481,-0.246166 -0.0084,-0.06049 -0.0405,-0.154568 -0.07128,-0.209024 z"
               fill="#1a1a1a"
               id="path92"
               style="stroke-width:0.202586" /><path
               d="m 36.048518,82.78404 0.0061,1.939302 h 0.945432 l 0.01317,-1.509027 1.65381,-0.01294 0.01355,-0.797802 h -1.668121 v -0.785551 h 1.890965 v -0.834638 h -2.855922 c -7.66e-4,0.341341 -0.0015,1.254576 6.66e-4,2.000664 z"
               fill="#1a1a1a"
               id="path93"
               style="stroke-width:0.202586" /></g></g></g><g
         id="g105"
         transform="translate(-48.855469,-22.225008)"><rect
           style="fill:#efeeef;fill-opacity:1;stroke:#000000;stroke-width:0.529164;stroke-dasharray:none;stroke-opacity:1"
           id="rect27"
           width="31.574837"
           height="18.4352"
           x="163.32945"
           y="122.16048"
           ry="1.8506361" /><text
           xml:space="preserve"
           style="font-style:normal;font-variant:normal;font-weight:normal;font-stretch:normal;font-size:22.5778px;font-family:sans-serif;-inkscape-font-specification:'sans-serif, Normal';font-variant-ligatures:normal;font-variant-caps:normal;font-variant-numeric:normal;font-variant-east-asian:normal;writing-mode:lr-tb;direction:ltr;fill:#000000;fill-opacity:1;stroke:none;stroke-width:0;stroke-dasharray:none"
           x="172.73598"
           y="133.36493"
           id="text11"><tspan
             sodipodi:role="line"
             id="tspan11"
             style="font-style:normal;font-variant:normal;font-weight:normal;font-stretch:normal;font-size:5.64444px;font-family:sans-serif;-inkscape-font-specification:'sans-serif, Normal';font-variant-ligatures:normal;font-variant-caps:normal;font-variant-numeric:normal;font-variant-east-asian:normal;fill:#000000;fill-opacity:1;stroke:none;stroke-width:0;stroke-dasharray:none"
             x="172.73598"
             y="133.36493">Host</tspan></text></g><g
         id="g104"
         transform="translate(-48.723682,13.530893)"><rect
           style="fill:#efeeef;fill-opacity:1;stroke:#000000;stroke-width:0.529164;stroke-dasharray:none;stroke-opacity:1"
           id="rect26"
           width="31.574837"
           height="18.4352"
           x="114.47399"
           y="122.16047"
           ry="1.8506361" /><text
           xml:space="preserve"
           style="font-style:normal;font-variant:normal;font-weight:normal;font-stretch:normal;font-size:22.5778px;font-family:sans-serif;-inkscape-font-specification:'sans-serif, Normal';font-variant-ligatures:normal;font-variant-caps:normal;font-variant-numeric:normal;font-variant-east-asian:normal;writing-mode:lr-tb;direction:ltr;fill:#000000;fill-opacity:1;stroke:none;stroke-width:0;stroke-dasharray:none"
           x="123.4147"
           y="133.40161"
           id="text10"><tspan
             sodipodi:role="line"
             id="tspan10"
             style="font-style:normal;font-variant:normal;font-weight:normal;font-stretch:normal;font-size:5.64444px;font-family:sans-serif;-inkscape-font-specification:'sans-serif, Normal';font-variant-ligatures:normal;font-variant-caps:normal;font-variant-numeric:normal;font-variant-east-asian:normal;fill:#000000;fill-opacity:1;stroke:none;stroke-width:0;stroke-dasharray:none"
             x="123.4147"
             y="133.40161">VLAN</tspan></text></g><g
         id="g106"
         transform="translate(-48.723682,13.530893)"><rect
           style="fill:#efeeef;fill-opacity:1;stroke:#000000;stroke-width:0.529164;stroke-dasharray:none;stroke-opacity:1"
           id="rect28"
           width="31.574837"
           height="18.4352"
           x="114.47408"
           y="157.87648"
           ry="1.8506361" /><text
           xml:space="preserve"
           style="font-style:normal;font-variant:normal;font-weight:normal;font-stretch:normal;font-size:22.5778px;font-family:sans-serif;-inkscape-font-specification:'sans-serif, Normal';font-variant-ligatures:normal;font-variant-caps:normal;font-variant-numeric:normal;font-variant-east-asian:normal;writing-mode:lr-tb;direction:ltr;fill:#000000;fill-opacity:1;stroke:none;stroke-width:0;stroke-dasharray:none"
           x="117.05069"
           y="169.10915"
           id="text15"><tspan
             sodipodi:role="line"
             id="tspan15"
             style="font-style:normal;font-variant:normal;font-weight:normal;font-stretch:normal;font-size:5.64444px;font-family:sans-serif;-inkscape-font-specification:'sans-serif, Normal';font-variant-ligatures:normal;font-variant-caps:normal;font-variant-numeric:normal;font-variant-east-asian:normal;fill:#000000;fill-opacity:1;stroke:none;stroke-width:0;stroke-dasharray:none"
             x="117.05069"
             y="169.10915">MACVLAN</tspan></text></g><path
         style="fill:none;fill-rule:evenodd;stroke:#000000;stroke-width:0.264583px;stroke-linecap:butt;stroke-linejoin:miter;stroke-opacity:1"
         d="M 97.193019,109.15324 H 114.47364"
         id="path19"
         inkscape:connector-type="polyline"
         inkscape:connector-curvature="0" /><path
         style="fill:none;fill-rule:evenodd;stroke:#000000;stroke-width:0.264583;stroke-linecap:butt;stroke-linejoin:miter;stroke-dasharray:none;stroke-opacity:1"
         d="m 81.405528,135.51953 -2.7e-4,-17.28081"
         id="path21"
         inkscape:connector-type="polyline"
         inkscape:connector-curvature="0" /><path
         style="fill:none;fill-rule:evenodd;stroke:#000000;stroke-width:0.264583px;stroke-linecap:butt;stroke-linejoin:miter;stroke-opacity:1"
         d="M 48.336518,109.02096 H 65.617683"
         id="path67"
         inkscape:connector-type="polyline"
         inkscape:connector-curvature="0" /><g
         id="g107"
         transform="translate(0,-22.225008)"><g
           id="g102"><rect
             style="fill:#efeeef;fill-opacity:1;stroke:#000000;stroke-width:0.529164;stroke-dasharray:none;stroke-opacity:1"
             id="rect66"
             width="31.574837"
             height="18.4352"
             x="16.761681"
             y="122.02836"
             ry="1.8506361" /><text
             xml:space="preserve"
             style="font-style:normal;font-variant:normal;font-weight:normal;font-stretch:normal;font-size:22.5777px;font-family:sans-serif;-inkscape-font-specification:'sans-serif, Normal';font-variant-ligatures:normal;font-variant-caps:normal;font-variant-numeric:normal;font-variant-east-asian:normal;writing-mode:lr-tb;direction:ltr;fill:#000000;fill-opacity:1;stroke:none;stroke-width:0;stroke-dasharray:none"
             x="24.048792"
             y="133.2693"
             id="text66"><tspan
               sodipodi:role="line"
               id="tspan66"
               style="font-style:normal;font-variant:normal;font-weight:normal;font-stretch:normal;font-size:5.64441px;font-family:sans-serif;-inkscape-font-specification:'sans-serif, Normal';font-variant-ligatures:normal;font-variant-caps:normal;font-variant-numeric:normal;font-variant-east-asian:normal;fill:#000000;fill-opacity:1;stroke:none;stroke-width:0;stroke-dasharray:none"
               x="24.048792"
               y="133.2693">VXLAN</tspan></text></g><g
           id="g81"
           transform="translate(9.6942016,67.784833)"><rect
             style="fill:#fff2cc;fill-opacity:1;stroke:#ffdd76;stroke-width:0.264583;stroke-dasharray:none;stroke-opacity:1"
             id="rect68"
             width="17.992134"
             height="9.2567034"
             x="26.132042"
             y="68.314957"
             ry="0.92924339" /><g
             id="g80"
             transform="matrix(0.6249275,0,0,0.6249275,17.526143,21.155862)"><path
               fill-rule="evenodd"
               clip-rule="evenodd"
               d="m 22.217818,78.397743 c 0.09805,0.04954 0.136866,0.168052 0.08668,0.26475 -0.09906,0.190937 -0.152669,0.464799 -0.173167,0.746294 -0.02021,0.277835 -0.0069,0.54077 0.01394,0.695522 0.0144,0.107708 -0.0624,0.206535 -0.171589,0.22073 -0.109202,0.01416 -0.209414,-0.06164 -0.223824,-0.169322 -0.02435,-0.181995 -0.03851,-0.471652 -0.01639,-0.775222 0.02182,-0.299911 0.08047,-0.636259 0.215922,-0.897317 0.05015,-0.0967 0.170334,-0.134952 0.268387,-0.08543 z"
               fill="#1a1a1a"
               id="path68"
               style="stroke-width:0.202586" /><path
               d="m 21.061348,81.511838 c 0.11973,-0.561183 -1.097244,-0.652774 -1.720715,-0.628403 -2.457883,0.05214 -1.4305,1.538767 -0.06968,1.704499 0.560019,0.06822 1.64074,-0.374617 1.790408,-1.076096 z"
               fill="#cfedfc"
               id="path69"
               style="stroke-width:0.202586" /><path
               d="m 18.037466,81.195052 c 0.06899,-0.05612 0.158558,-0.106942 0.270906,-0.150517 l 0.03499,0.108565 0.178304,0.222798 0.261189,0.233586 0.200662,-0.0294 1.003012,-0.102586 1.054358,0.111261 c -0.03315,0.104332 -0.08684,0.2024 -0.155869,0.293287 -0.312061,-0.06164 -1.0406,-0.07997 -1.436304,-0.08069 -0.105886,0.122731 -0.144216,0.540058 -0.1525,0.789279 -0.0086,-7.65e-4 -0.017,-0.0015 -0.02534,-0.0031 -0.111062,-0.01355 -0.219912,-0.03583 -0.324818,-0.06547 -0.0097,-0.194866 0.05842,-0.473505 0.108015,-0.62818 -0.310185,0.01662 -0.63828,0.167799 -0.819233,0.273103 -0.08341,-0.06608 -0.155717,-0.136598 -0.214353,-0.20933 l 0.402052,-0.21792 c -0.06202,-0.03109 -0.258165,-0.336357 -0.385122,-0.545081 z"
               fill="#00ace6"
               id="path70"
               style="stroke-width:0.202586" /><path
               d="m 20.85283,82.188822 0.361371,0.24106 -1.632884,2.383145 -0.39235,-0.261726 -0.301357,-0.438436 -0.150893,-0.723884 0.270224,-0.635898 0.648563,0.195172 z"
               fill="#ffe100"
               id="path71"
               style="stroke-width:0.202586" /><path
               fill-rule="evenodd"
               clip-rule="evenodd"
               d="m 20.52407,80.605386 c 0.484408,-1.030385 1.662753,-0.777756 2.219258,-0.406554 l -1.52931,2.231961 -0.175518,-0.11708 c -0.222843,0.254979 -0.678033,0.447985 -0.877769,0.512608 0.02029,0.286556 0.264053,0.507517 0.3834,0.58217 l -0.50244,0.733286 C 19.455232,83.750583 19.283926,83.191138 19.271576,82.960331 L 19.0539,82.948692 c -0.384341,0.859531 0.218335,1.525658 0.590034,1.773601 l -0.64896,0.947156 0.112853,-0.889278 C 18.376265,84.161616 18.50715,83.227002 18.664031,82.837025 18.160037,82.73826 17.28533,82.01685 17.449653,81.403762 17.735765,80.336257 19.6132,80.353951 20.52407,80.605394 Z m 0.537623,0.903634 c 0.11388,-0.558021 -1.099289,-0.649168 -1.721451,-0.624857 -0.395505,0.0084 -0.700767,0.0539 -0.928917,0.12512 0.10153,0.311111 0.336961,0.465825 0.451301,0.505977 0.721363,-0.161826 1.658021,-0.08717 2.199067,-0.0061 z m -0.04548,0.14734 c -0.377312,-0.04831 -0.939529,-0.0608 -1.231215,-0.06011 -0.39611,0.266786 -0.446913,0.716685 -0.413215,0.999138 0.536528,0.0091 1.406051,-0.359794 1.64443,-0.939055 z m -1.82533,0.921038 c -0.07236,-0.409142 0.160602,-0.795191 0.303585,-0.952316 -0.733553,0.02764 -1.195994,0.232974 -1.421909,0.394173 0.241734,0.260913 0.656809,0.483941 1.118324,0.558143 z m -1.24679,-0.726961 c 0.181337,-0.109316 0.506223,-0.209896 0.683003,-0.254872 -0.255576,-0.188549 -0.367174,-0.385383 -0.40663,-0.512769 -0.39977,0.189582 -0.445083,0.486376 -0.276373,0.767641 z"
               fill="#1a1a1a"
               id="path72"
               style="stroke-width:0.202586" /><path
               fill-rule="evenodd"
               clip-rule="evenodd"
               d="m 24.632746,80.007879 c -0.0831,-0.07129 -0.209023,-0.06263 -0.281288,0.01929 -0.142662,0.161842 -0.380276,0.312957 -0.637376,0.43663 -0.253785,0.122034 -0.506085,0.207706 -0.659359,0.246404 -0.106667,0.02695 -0.170984,0.134093 -0.143657,0.239336 0.02733,0.105243 0.135954,0.168733 0.242637,0.141789 0.180241,-0.04548 0.457931,-0.140533 0.735207,-0.273899 0.273922,-0.131736 0.568419,-0.310767 0.763491,-0.532042 0.07228,-0.08197 0.06348,-0.206221 -0.01968,-0.277529 z"
               fill="#1a1a1a"
               id="path73"
               style="stroke-width:0.202586" /><path
               d="m 22.134979,82.228286 c 0.483168,-0.318753 1.02282,0.761401 1.232234,1.34132 0.866889,2.269885 -0.914155,1.883186 -1.577135,0.698991 -0.272843,-0.487326 -0.259068,-1.641866 0.344901,-2.040311 z"
               fill="#cfedfc"
               id="path74"
               style="stroke-width:0.202586" /><path
               d="m 23.559544,84.879105 c 0.02711,-0.08409 0.0415,-0.185019 0.04066,-0.304121 l -0.115166,0.0084 -0.276005,-0.08025 -0.317008,-0.152095 -0.04717,-0.194666 -0.277283,-0.956597 -0.497571,-0.923894 c -0.08576,0.06922 -0.157975,0.154936 -0.217736,0.251994 0.174299,0.262759 0.462969,0.92299 0.611143,1.285012 -0.07596,0.142677 -0.454202,0.333293 -0.685514,0.433758 0.0038,0.0077 0.008,0.01493 0.01202,0.0222 0.05413,0.09663 0.115679,0.187975 0.18263,0.272981 0.186888,-0.0637 0.423568,-0.229934 0.550548,-0.332972 0.09994,0.290209 0.08004,0.646924 0.04847,0.851859 0.09321,0.05176 0.186504,0.09167 0.276755,0.118252 l 0.05513,-0.449317 c 0.05237,0.04518 0.412549,0.111016 0.656159,0.149483 z"
               fill="#00ace6"
               id="path75"
               style="stroke-width:0.202586" /><path
               d="m 21.57535,82.670451 -0.361371,-0.241059 -1.632884,2.383145 0.39235,0.261725 0.524653,0.112517 0.737052,-0.131583 0.497395,-0.484385 -0.425275,-0.521092 z"
               fill="#ffe100"
               id="path76"
               style="stroke-width:0.202586" /><path
               fill-rule="evenodd"
               clip-rule="evenodd"
               d="m 23.187676,82.382027 c 0.78859,-0.827503 0.111874,-1.812261 -0.444631,-2.183455 l -1.529288,2.231953 0.175525,0.117096 c -0.156766,0.299036 -0.168657,0.787739 -0.155004,0.994681 -0.277093,0.08822 -0.575732,-0.0526 -0.690431,-0.134071 l -0.502417,0.733278 c 0.586451,0.391194 1.176462,0.339556 1.39815,0.264841 l 0.09206,0.194973 c -0.665177,0.6722 -1.516263,0.368622 -1.887963,0.120702 l -0.648976,0.947148 0.79431,-0.434708 c 0.85437,0.43931 1.684606,-0.02879 1.992946,-0.317796 0.280683,0.424662 1.285142,0.956711 1.800546,0.577798 0.897378,-0.659765 0.181091,-2.372172 -0.394824,-3.11244 z m -1.050224,-0.155525 c 0.482395,-0.312207 1.020225,0.764601 1.229194,1.343311 0.1395,0.365245 0.210425,0.661709 0.228472,0.897133 -0.330437,0.02297 -0.563672,-0.13492 -0.644038,-0.224651 -0.116628,-0.720781 -0.535885,-1.55055 -0.813628,-2.015793 z m -0.121613,0.09657 c 0.186076,0.327436 0.40732,0.837549 0.515319,1.104924 -0.103321,0.462081 -0.507524,0.676258 -0.785712,0.750644 -0.208479,-0.487846 -0.18557,-1.421465 0.270393,-1.855568 z m -0.186053,2.0145 c 0.411791,-0.0862 0.688041,-0.443383 0.782549,-0.632843 0.247377,0.681931 0.226573,1.181867 0.159147,1.448776 -0.335483,-0.124102 -0.699909,-0.421033 -0.941696,-0.815933 z m 1.148338,0.870656 c 0.03522,-0.20678 0.0088,-0.541719 -0.01478,-0.720337 0.272559,0.163726 0.499277,0.192553 0.633769,0.181229 -0.02933,0.436661 -0.291579,0.588763 -0.618984,0.539109 z"
               fill="#1a1a1a"
               id="path77"
               style="stroke-width:0.202586" /><path
               fill-rule="evenodd"
               clip-rule="evenodd"
               d="m 28.438557,82.913655 v -2.130279 h 1.042759 c 0.814133,0 1.084687,0.0079 1.233888,0.03606 0.105166,0.01983 0.251334,0.06324 0.324832,0.09648 0.07358,0.03323 0.18992,0.112271 0.258601,0.175677 0.06868,0.0634 0.152624,0.171858 0.186497,0.241045 0.03384,0.06922 0.07305,0.1974 0.08695,0.284933 0.01715,0.107899 0.01715,0.210669 2.3e-5,0.319136 -0.01394,0.08798 -0.05352,0.217576 -0.08802,0.28798 -0.03453,0.07037 -0.112739,0.171405 -0.173825,0.224482 -0.0611,0.05306 -0.169644,0.124102 -0.241197,0.157815 l -0.130081,0.06133 0.07465,0.01876 c 0.04104,0.01034 0.121881,0.03859 0.179636,0.06279 0.05773,0.0242 0.157263,0.09151 0.221182,0.149545 0.06394,0.05804 0.14169,0.145235 0.172807,0.193817 0.03116,0.04854 0.07435,0.147218 0.09605,0.219261 0.02213,0.0735 0.03943,0.220233 0.03943,0.334648 0,0.140495 -0.01616,0.252246 -0.05207,0.360246 -0.02864,0.08612 -0.09303,0.209697 -0.143067,0.274619 -0.05008,0.06493 -0.152524,0.159767 -0.227806,0.210693 -0.07527,0.05092 -0.207576,0.115556 -0.293998,0.143595 -0.08644,0.02802 -0.259957,0.06164 -0.385643,0.07473 -0.125664,0.01309 -0.667904,0.02389 -1.205007,0.02419 l -0.976527,4.29e-4 -0.0023,-1.116937 -0.06585,0.08592 c -0.03629,0.04724 -0.14489,0.163886 -0.24142,0.259168 -0.09653,0.0953 -0.24697,0.22096 -0.334288,0.279282 -0.08732,0.05827 -0.249666,0.148014 -0.360743,0.199345 -0.111124,0.05138 -0.285998,0.117019 -0.388622,0.145946 -0.108711,0.03063 -0.29661,0.05835 -0.450228,0.06639 -0.199123,0.01041 -0.310308,0.0038 -0.454164,-0.02802 -0.104776,-0.02297 -0.268042,-0.08008 -0.362788,-0.126858 -0.09481,-0.04678 -0.228678,-0.135043 -0.297543,-0.196145 -0.06891,-0.0611 -0.177424,-0.188549 -0.241236,-0.283279 -0.06378,-0.09471 -0.142884,-0.248387 -0.175701,-0.341517 -0.03285,-0.09311 -0.07128,-0.260285 -0.0854,-0.3715 -0.01417,-0.111246 -0.01861,-0.27449 -0.0099,-0.362796 0.0087,-0.08833 0.03744,-0.241342 0.06401,-0.340023 0.02642,-0.09867 0.07753,-0.236757 0.113474,-0.306855 0.03591,-0.07006 0.110749,-0.193709 0.166345,-0.274703 0.05559,-0.08102 0.180907,-0.224628 0.278555,-0.319136 0.09762,-0.09451 0.24063,-0.208909 0.317757,-0.254191 0.07714,-0.04533 0.210547,-0.111583 0.296441,-0.147294 0.13839,-0.0575 0.326449,-0.07721 0.438399,-0.07721 0.111973,0 0.299542,0.01723 0.423322,0.08151 0.07328,0.03813 0.182408,0.119179 0.242522,0.18018 0.07694,0.07812 0.1211,0.151046 0.149185,0.246366 0.02764,0.09396 0.03476,0.175839 0.0232,0.26733 -0.0092,0.07251 -0.05168,0.200884 -0.09437,0.285224 -0.04908,0.09681 -0.146995,0.222561 -0.265752,0.341134 -0.103421,0.10326 -0.286013,0.250577 -0.405735,0.327359 -0.119691,0.07678 -0.287613,0.170801 -0.373185,0.208947 -0.08556,0.03813 -0.245095,0.09714 -0.354572,0.131115 -0.109477,0.03392 -0.2522,0.0696 -0.317229,0.07921 -0.08033,0.01187 -0.118168,0.02917 -0.118168,0.05413 0,0.02014 0.03346,0.105809 0.07435,0.190287 0.04089,0.08454 0.120258,0.200402 0.176436,0.257491 0.05612,0.05712 0.174705,0.137332 0.26344,0.178296 0.128742,0.05942 0.205524,0.07698 0.379954,0.08681 0.15394,0.0087 0.274298,8.4e-5 0.406914,-0.02902 0.103558,-0.02274 0.287023,-0.08883 0.407702,-0.146857 0.120702,-0.05804 0.308983,-0.172279 0.418445,-0.253923 0.109477,-0.08162 0.272781,-0.224123 0.362833,-0.31664 0.09009,-0.09253 0.21606,-0.238487 0.279895,-0.324366 z m 2.132936,-1.175405 c -0.03101,-0.04586 -0.09544,-0.102732 -0.143045,-0.126338 -0.07366,-0.03652 -0.159805,-0.04296 -0.577959,-0.04296 l -0.491376,-3.8e-5 v 0.73644 h 0.479883 c 0.448184,0 0.487226,-0.0038 0.590884,-0.05521 0.07228,-0.03591 0.126238,-0.08523 0.154515,-0.141138 0.02389,-0.04724 0.04357,-0.131237 0.04357,-0.186627 2.3e-5,-0.06386 -0.0206,-0.131215 -0.05643,-0.184108 z m -3.540181,0.08148 c -0.02136,-0.03009 -0.07121,-0.07121 -0.110695,-0.09141 -0.04188,-0.02136 -0.13855,-0.03668 -0.231511,-0.03668 -0.133688,0 -0.18946,0.01462 -0.343347,0.08983 -0.133527,0.06531 -0.234658,0.140855 -0.370306,0.276649 -0.129133,0.129277 -0.219483,0.248639 -0.293364,0.387534 -0.05873,0.110365 -0.12257,0.275415 -0.141957,0.366761 -0.01937,0.09132 -0.02955,0.171674 -0.02259,0.178519 0.0069,0.0069 0.09921,-0.0054 0.205057,-0.02688 0.105832,-0.02159 0.281012,-0.07565 0.389249,-0.120089 0.108221,-0.04449 0.294764,-0.145479 0.414532,-0.224528 0.119753,-0.07903 0.268976,-0.201375 0.33164,-0.271871 0.06263,-0.07052 0.135977,-0.17309 0.163021,-0.227974 0.02703,-0.0549 0.04916,-0.132509 0.04916,-0.1725 0,-0.03997 -0.01746,-0.09734 -0.03882,-0.12741 z m 3.64001,1.440514 c -0.03093,-0.04586 -0.106031,-0.108259 -0.166987,-0.138649 -0.104071,-0.05191 -0.141552,-0.05521 -0.615577,-0.05521 H 29.38399 v 0.888037 l 0.516253,-0.0083 c 0.46558,-0.0077 0.526031,-0.01332 0.615784,-0.05949 0.0588,-0.03032 0.122256,-0.0906 0.155096,-0.147302 0.04058,-0.07014 0.05566,-0.136383 0.05597,-0.245822 2.83e-4,-0.11499 -0.01271,-0.169177 -0.05582,-0.233196 z"
               fill="#1a1a1a"
               id="path78"
               style="stroke-width:0.202586" /><path
               fill-rule="evenodd"
               clip-rule="evenodd"
               d="m 32.2576,84.723342 -0.01271,-3.939966 h 0.954767 c 0.744119,0 1.003494,0.0083 1.175711,0.03759 0.133787,0.02274 0.292291,0.07075 0.40173,0.12172 0.102571,0.04778 0.237997,0.137593 0.313118,0.207646 0.07282,0.06792 0.161237,0.176114 0.19655,0.24037 0.0353,0.06432 0.08275,0.187737 0.105404,0.274382 0.0255,0.09755 0.04081,0.251695 0.0402,0.405038 -5.21e-4,0.140816 -0.0173,0.308715 -0.03897,0.389425 -0.0209,0.07808 -0.06187,0.188534 -0.09102,0.2455 -0.02917,0.05697 -0.09095,0.154974 -0.137317,0.217798 -0.0464,0.06286 -0.159737,0.164461 -0.251894,0.225823 -0.09218,0.06133 -0.234758,0.133343 -0.316869,0.15992 -0.0821,0.02665 -0.236864,0.06034 -0.343891,0.07496 -0.107065,0.01462 -0.383958,0.02657 -0.61537,0.02657 h -0.420757 l -0.01325,1.313311 z m 2.121036,-2.916334 c -0.0343,-0.06064 -0.09456,-0.11878 -0.155525,-0.15012 -0.08822,-0.04533 -0.150985,-0.06011 -0.553564,-0.06692 l -0.454057,4.67e-4 v 1.009512 l 0.40428,-1.45e-4 c 0.222376,-7.7e-5 0.446599,-0.01171 0.498282,-0.02588 0.05168,-0.01416 0.132915,-0.05949 0.180463,-0.100664 0.06034,-0.0523 0.0986,-0.116039 0.126575,-0.211053 0.02573,-0.08742 0.03461,-0.175501 0.02481,-0.246166 -0.0084,-0.06049 -0.0405,-0.154568 -0.07128,-0.209024 z"
               fill="#1a1a1a"
               id="path79"
               style="stroke-width:0.202586" /><path
               d="m 36.048518,82.78404 0.0061,1.939302 h 0.945432 l 0.01317,-1.509027 1.65381,-0.01294 0.01355,-0.797802 h -1.668121 v -0.785551 h 1.890965 v -0.834638 h -2.855922 c -7.66e-4,0.341341 -0.0015,1.254576 6.66e-4,2.000664 z"
               fill="#1a1a1a"
               id="path80"
               style="stroke-width:0.202586" /></g></g></g><path
         style="fill:none;fill-rule:evenodd;stroke:#000000;stroke-width:0.264583;stroke-linecap:butt;stroke-linejoin:miter;stroke-dasharray:none;stroke-opacity:1"
         d="m 81.537818,171.40754 -2.7e-4,-17.28081"
         id="path14"
         inkscape:connector-type="polyline"
         inkscape:connector-curvature="0" /></g></g></svg>
